<svg id="Grupo_8634" data-name="Grupo 8634" xmlns="http://www.w3.org/2000/svg" width="24.299" height="17" viewBox="0 0 24.299 17">
  <path id="Caminho_1152" data-name="Caminho 1152" d="M580.723,487.161a1.131,1.131,0,0,1-1.131,1.131H557.555a1.131,1.131,0,0,1-1.131-1.131V472.422a1.131,1.131,0,0,1,1.131-1.13h22.037a1.131,1.131,0,0,1,1.131,1.13Z" transform="translate(-556.424 -471.292)" fill="#e6e7e8"/>
  <g id="Grupo_8632" data-name="Grupo 8632" transform="translate(0 0)">
    <path id="Caminho_1153" data-name="Caminho 1153" d="M556.424,554.6a1.131,1.131,0,0,0,1.131,1.131h22.037a1.131,1.131,0,0,0,1.131-1.131v-.185h-24.3Z" transform="translate(-556.424 -538.727)" fill="#da2128"/>
    <rect id="Retângulo_24" data-name="Retângulo 24" width="24.299" height="1.315" transform="translate(0 13.066)" fill="#da2128"/>
    <rect id="Retângulo_25" data-name="Retângulo 25" width="24.299" height="1.313" transform="translate(0 10.448)" fill="#da2128"/>
    <rect id="Retângulo_26" data-name="Retângulo 26" width="24.299" height="1.315" transform="translate(0 7.829)" fill="#da2128"/>
    <rect id="Retângulo_27" data-name="Retângulo 27" width="24.299" height="1.315" transform="translate(0 5.211)" fill="#da2128"/>
    <rect id="Retângulo_28" data-name="Retângulo 28" width="24.299" height="1.315" transform="translate(0 2.593)" fill="#da2128"/>
    <path id="Caminho_1154" data-name="Caminho 1154" d="M580.723,472.422a1.131,1.131,0,0,0-1.131-1.13H557.555a1.131,1.131,0,0,0-1.131,1.13v.185h24.3Z" transform="translate(-556.424 -471.292)" fill="#da2128"/>
  </g>
  <path id="Caminho_1155" data-name="Caminho 1155" d="M569.12,471.292H557.553a1.13,1.13,0,0,0-1.129,1.13v8.019h12.7Z" transform="translate(-556.424 -471.292)" fill="#006bb5"/>
  <g id="Grupo_8633" data-name="Grupo 8633" transform="translate(0.354 0.206)">
    <path id="Caminho_1156" data-name="Caminho 1156" d="M558.8,472.382l.124.373h.381l-.308.231.115.378-.312-.231-.308.231.12-.378-.312-.231h.381Z" transform="translate(-558.301 -472.382)" fill="#ededee"/>
    <path id="Caminho_1157" data-name="Caminho 1157" d="M569.9,472.382l.12.373h.385l-.307.231.12.378-.317-.231-.3.231.12-.378-.312-.231h.381Z" transform="translate(-567.305 -472.382)" fill="#ededee"/>
    <path id="Caminho_1158" data-name="Caminho 1158" d="M581.469,472.382l.115.373h.38l-.308.231.12.378-.307-.231-.312.231.115-.378-.307-.231h.385Z" transform="translate(-576.687 -472.382)" fill="#ededee"/>
    <path id="Caminho_1159" data-name="Caminho 1159" d="M593.049,472.382l.12.373h.381l-.312.231.12.378-.308-.231-.312.231.115-.378-.3-.231h.381Z" transform="translate(-586.086 -472.382)" fill="#ededee"/>
    <path id="Caminho_1160" data-name="Caminho 1160" d="M604.591,472.382l.115.373h.391l-.313.231.115.378-.308-.231-.312.231.12-.378-.313-.231h.386Z" transform="translate(-595.446 -472.382)" fill="#ededee"/>
    <path id="Caminho_1161" data-name="Caminho 1161" d="M564.091,477.823l.115.376h.385l-.312.231.12.378-.308-.231-.312.231.12-.378-.317-.231h.391Z" transform="translate(-562.585 -476.796)" fill="#ededee"/>
    <path id="Caminho_1162" data-name="Caminho 1162" d="M575.187,477.823l.12.376h.381l-.308.231.119.378-.312-.231-.312.231.12-.378-.312-.231h.386Z" transform="translate(-571.591 -476.796)" fill="#ededee"/>
    <path id="Caminho_1163" data-name="Caminho 1163" d="M586.75,477.823l.119.376h.385l-.312.231.12.378-.312-.231-.313.231.124-.378-.317-.231h.386Z" transform="translate(-580.972 -476.796)" fill="#ededee"/>
    <path id="Caminho_1164" data-name="Caminho 1164" d="M598.332,477.823l.12.376h.386l-.312.231.119.378-.312-.231-.307.231.119-.378-.312-.231h.381Z" transform="translate(-590.372 -476.796)" fill="#ededee"/>
    <path id="Caminho_1165" data-name="Caminho 1165" d="M609.915,477.823l.115.376h.386l-.308.231.115.378-.308-.231-.312.231.119-.378-.308-.231h.381Z" transform="translate(-599.769 -476.796)" fill="#ededee"/>
    <path id="Caminho_1166" data-name="Caminho 1166" d="M564.091,487.747l.115.373h.385l-.312.234.12.375-.308-.231-.312.231.12-.375-.317-.234h.391Z" transform="translate(-562.585 -484.848)" fill="#ededee"/>
    <path id="Caminho_1167" data-name="Caminho 1167" d="M575.187,487.747l.12.373h.381l-.308.234.119.375-.312-.231-.312.231.12-.375-.312-.234h.386Z" transform="translate(-571.591 -484.848)" fill="#ededee"/>
    <path id="Caminho_1168" data-name="Caminho 1168" d="M586.75,487.747l.119.373h.385l-.312.234.12.375-.312-.231-.313.231.124-.375-.317-.234h.386Z" transform="translate(-580.972 -484.848)" fill="#ededee"/>
    <path id="Caminho_1169" data-name="Caminho 1169" d="M598.332,487.747l.12.373h.386l-.312.234.119.375-.312-.231-.307.231.119-.375-.312-.234h.381Z" transform="translate(-590.372 -484.848)" fill="#ededee"/>
    <path id="Caminho_1170" data-name="Caminho 1170" d="M609.915,487.747l.115.373h.386l-.308.234.115.375-.308-.231-.312.231.119-.375-.308-.234h.381Z" transform="translate(-599.769 -484.848)" fill="#ededee"/>
    <path id="Caminho_1171" data-name="Caminho 1171" d="M564.091,497.655l.115.376h.385l-.312.234.12.371-.308-.234-.312.234.12-.371-.317-.234h.391Z" transform="translate(-562.585 -492.886)" fill="#ededee"/>
    <path id="Caminho_1172" data-name="Caminho 1172" d="M575.187,497.655l.12.376h.381l-.308.234.119.371-.312-.234-.312.234.12-.371-.312-.234h.386Z" transform="translate(-571.591 -492.886)" fill="#ededee"/>
    <path id="Caminho_1173" data-name="Caminho 1173" d="M586.75,497.655l.119.376h.385l-.312.234.12.371-.312-.234-.313.234.124-.371-.317-.234h.386Z" transform="translate(-580.972 -492.886)" fill="#ededee"/>
    <path id="Caminho_1174" data-name="Caminho 1174" d="M598.332,497.655l.12.376h.386l-.312.234.119.371-.312-.234-.307.234.119-.371-.312-.234h.381Z" transform="translate(-590.372 -492.886)" fill="#ededee"/>
    <path id="Caminho_1175" data-name="Caminho 1175" d="M609.915,497.655l.115.376h.386l-.308.234.115.371-.308-.234-.312.234.119-.371-.308-.234h.381Z" transform="translate(-599.769 -492.886)" fill="#ededee"/>
    <path id="Caminho_1176" data-name="Caminho 1176" d="M564.091,507.565l.115.373h.385l-.312.234.12.375-.308-.231-.312.231.12-.375-.317-.234h.391Z" transform="translate(-562.585 -500.926)" fill="#ededee"/>
    <path id="Caminho_1177" data-name="Caminho 1177" d="M575.187,507.565l.12.373h.381l-.308.234.119.375-.312-.231-.312.231.12-.375-.312-.234h.386Z" transform="translate(-571.591 -500.926)" fill="#ededee"/>
    <path id="Caminho_1178" data-name="Caminho 1178" d="M586.75,507.565l.119.373h.385l-.312.234.12.375-.312-.231-.313.231.124-.375-.317-.234h.386Z" transform="translate(-580.972 -500.926)" fill="#ededee"/>
    <path id="Caminho_1179" data-name="Caminho 1179" d="M598.332,507.565l.12.373h.386l-.312.234.119.375-.312-.231-.307.231.119-.375-.312-.234h.381Z" transform="translate(-590.372 -500.926)" fill="#ededee"/>
    <path id="Caminho_1180" data-name="Caminho 1180" d="M609.915,507.565l.115.373h.386l-.308.234.115.375-.308-.231-.312.231.119-.375-.308-.234h.381Z" transform="translate(-599.769 -500.926)" fill="#ededee"/>
    <path id="Caminho_1181" data-name="Caminho 1181" d="M616.174,472.382l.119.373h.381l-.308.231.12.378-.313-.231-.312.231.12-.378-.308-.231h.381Z" transform="translate(-604.848 -472.382)" fill="#ededee"/>
    <path id="Caminho_1182" data-name="Caminho 1182" d="M558.8,482.29l.124.378h.381L559,482.9l.115.376-.312-.231-.308.231.12-.376-.312-.229h.381Z" transform="translate(-558.301 -480.42)" fill="#ededee"/>
    <path id="Caminho_1183" data-name="Caminho 1183" d="M569.9,482.29l.12.378h.385l-.307.229.12.376-.317-.231-.3.231.12-.376-.312-.229h.381Z" transform="translate(-567.305 -480.42)" fill="#ededee"/>
    <path id="Caminho_1184" data-name="Caminho 1184" d="M581.469,482.29l.115.378h.38l-.308.229.12.376-.307-.231-.312.231.115-.376-.307-.229h.385Z" transform="translate(-576.687 -480.42)" fill="#ededee"/>
    <path id="Caminho_1185" data-name="Caminho 1185" d="M593.049,482.29l.12.378h.381l-.312.229.12.376-.308-.231-.312.231.115-.376-.3-.229h.381Z" transform="translate(-586.086 -480.42)" fill="#ededee"/>
    <path id="Caminho_1186" data-name="Caminho 1186" d="M604.591,482.29l.115.378h.391l-.313.229.115.376-.308-.231-.312.231.12-.376-.313-.229h.386Z" transform="translate(-595.446 -480.42)" fill="#ededee"/>
    <path id="Caminho_1187" data-name="Caminho 1187" d="M616.174,482.29l.119.378h.381l-.308.229.12.376-.313-.231-.312.231.12-.376-.308-.229h.381Z" transform="translate(-604.848 -480.42)" fill="#ededee"/>
    <path id="Caminho_1188" data-name="Caminho 1188" d="M558.8,492.2l.124.374h.381l-.308.234.115.375-.312-.234-.308.234.12-.375-.312-.234h.381Z" transform="translate(-558.301 -488.459)" fill="#ededee"/>
    <path id="Caminho_1189" data-name="Caminho 1189" d="M569.9,492.2l.12.374h.385l-.307.234.12.375-.317-.234-.3.234.12-.375-.312-.234h.381Z" transform="translate(-567.305 -488.459)" fill="#ededee"/>
    <path id="Caminho_1190" data-name="Caminho 1190" d="M581.469,492.2l.115.374h.38l-.308.234.12.375-.307-.234-.312.234.115-.375-.307-.234h.385Z" transform="translate(-576.687 -488.459)" fill="#ededee"/>
    <path id="Caminho_1191" data-name="Caminho 1191" d="M593.049,492.2l.12.374h.381l-.312.234.12.375-.308-.234-.312.234.115-.375-.3-.234h.381Z" transform="translate(-586.086 -488.459)" fill="#ededee"/>
    <path id="Caminho_1192" data-name="Caminho 1192" d="M604.591,492.2l.115.374h.391l-.313.234.115.375-.308-.234-.312.234.12-.375-.313-.234h.386Z" transform="translate(-595.446 -488.459)" fill="#ededee"/>
    <path id="Caminho_1193" data-name="Caminho 1193" d="M616.174,492.2l.119.374h.381l-.308.234.12.375-.313-.234-.312.234.12-.375-.308-.234h.381Z" transform="translate(-604.848 -488.459)" fill="#ededee"/>
    <path id="Caminho_1194" data-name="Caminho 1194" d="M558.8,502.122l.124.376h.381l-.308.228.115.375-.312-.231-.308.231.12-.375-.312-.228h.381Z" transform="translate(-558.301 -496.51)" fill="#ededee"/>
    <path id="Caminho_1195" data-name="Caminho 1195" d="M569.9,502.122l.12.376h.385l-.307.228.12.375-.317-.231-.3.231.12-.375-.312-.228h.381Z" transform="translate(-567.305 -496.51)" fill="#ededee"/>
    <path id="Caminho_1196" data-name="Caminho 1196" d="M581.469,502.122l.115.376h.38l-.308.228.12.375-.307-.231-.312.231.115-.375-.307-.228h.385Z" transform="translate(-576.687 -496.51)" fill="#ededee"/>
    <path id="Caminho_1197" data-name="Caminho 1197" d="M593.049,502.122l.12.376h.381l-.312.228.12.375-.308-.231-.312.231.115-.375-.3-.228h.381Z" transform="translate(-586.086 -496.51)" fill="#ededee"/>
    <path id="Caminho_1198" data-name="Caminho 1198" d="M604.591,502.122l.115.376h.391l-.313.228.115.375-.308-.231-.312.231.12-.375-.313-.228h.386Z" transform="translate(-595.446 -496.51)" fill="#ededee"/>
    <path id="Caminho_1199" data-name="Caminho 1199" d="M616.174,502.122l.119.376h.381l-.308.228.12.375-.313-.231-.312.231.12-.375-.308-.228h.381Z" transform="translate(-604.848 -496.51)" fill="#ededee"/>
    <path id="Caminho_1200" data-name="Caminho 1200" d="M558.8,512.009l.124.38h.381l-.308.23.115.375-.312-.232-.308.232.12-.375-.312-.23h.381Z" transform="translate(-558.301 -504.531)" fill="#ededee"/>
    <path id="Caminho_1201" data-name="Caminho 1201" d="M569.9,512.009l.12.38h.385l-.307.23.12.375-.317-.232-.3.232.12-.375-.312-.23h.381Z" transform="translate(-567.305 -504.531)" fill="#ededee"/>
    <path id="Caminho_1202" data-name="Caminho 1202" d="M581.469,512.009l.115.38h.38l-.308.23.12.375-.307-.232-.312.232.115-.375-.307-.23h.385Z" transform="translate(-576.687 -504.531)" fill="#ededee"/>
    <path id="Caminho_1203" data-name="Caminho 1203" d="M593.049,512.009l.12.38h.381l-.312.23.12.375-.308-.232-.312.232.115-.375-.3-.23h.381Z" transform="translate(-586.086 -504.531)" fill="#ededee"/>
    <path id="Caminho_1204" data-name="Caminho 1204" d="M604.591,512.009l.115.38h.391l-.313.23.115.375-.308-.232-.312.232.12-.375-.313-.23h.386Z" transform="translate(-595.446 -504.531)" fill="#ededee"/>
    <path id="Caminho_1205" data-name="Caminho 1205" d="M616.174,512.009l.119.38h.381l-.308.23.12.375-.313-.232-.312.232.12-.375-.308-.23h.381Z" transform="translate(-604.848 -504.531)" fill="#ededee"/>
  </g>
</svg>
