<svg id="Grupo_8631" data-name="Grupo 8631" xmlns="http://www.w3.org/2000/svg" width="24.298" height="17" viewBox="0 0 24.298 17">
  <rect id="Retângulo_23" data-name="Retângulo 23" width="24.298" height="17" rx="2" transform="translate(0 0)" fill="#00aa5b"/>
  <g id="Grupo_8630" data-name="Grupo 8630" transform="translate(2.155 2.275)">
    <path id="Caminho_1107" data-name="Caminho 1107" d="M432.621,622.008l-9.991-6.225,9.991-6.225,10,6.223Z" transform="translate(-422.63 -609.558)" fill="#f9d10b"/>
    <path id="Caminho_1108" data-name="Caminho 1108" d="M461.983,624.666a4.165,4.165,0,1,1-4.162-4.171A4.165,4.165,0,0,1,461.983,624.666Z" transform="translate(-447.825 -618.44)" fill="#005e9e"/>
    <path id="Caminho_1109" data-name="Caminho 1109" d="M456.815,634.253a10.287,10.287,0,0,0-2.359-.052,3.95,3.95,0,0,0-.33.815,9.275,9.275,0,0,1,2.625,0,10.942,10.942,0,0,1,5.365,2.352,4.492,4.492,0,0,0,.163-.84A11.541,11.541,0,0,0,456.815,634.253Z" transform="translate(-448.209 -629.535)" fill="#fff"/>
    <g id="Grupo_8628" data-name="Grupo 8628" transform="translate(6.639 4.823)">
      <path id="Caminho_1110" data-name="Caminho 1110" d="M458.257,635.411a.125.125,0,0,1-.116.146c-.077,0-.123-.055-.127-.137s.039-.145.116-.147S458.254,635.328,458.257,635.411Zm.052,0a.171.171,0,1,0-.341.014.162.162,0,0,0,.172.174A.171.171,0,0,0,458.309,635.409Z" transform="translate(-457.968 -635.23)" fill="#00a460"/>
      <path id="Caminho_1111" data-name="Caminho 1111" d="M460.162,635.277h.113c.025,0,.064.008.065.062s-.036.06-.072.059h-.112Zm0,.16h.113c.057,0,.058.032.066.064a.186.186,0,0,0,.007.086l.056,0,0-.009c-.013-.008-.016-.016-.016-.036l0-.065c0-.049-.02-.059-.044-.065a.077.077,0,0,0,.053-.083c0-.074-.057-.092-.117-.1l-.16,0v.348h.045Z" transform="translate(-459.708 -635.234)" fill="#00a460"/>
      <path id="Caminho_1112" data-name="Caminho 1112" d="M462.008,635.31h.087c.07.006.1.05.1.137s-.047.133-.1.132l-.1,0Zm-.056.309h.138c.116.005.152-.093.158-.171a.16.16,0,0,0-.146-.18l-.138,0Z" transform="translate(-461.204 -635.26)" fill="#00a460"/>
      <path id="Caminho_1113" data-name="Caminho 1113" d="M464.066,635.712l-.257-.015.022-.35.256.018v.043l-.21-.018,0,.112.187.01,0,.043-.19-.012-.006.115.206.014Z" transform="translate(-462.712 -635.325)" fill="#00a460"/>
      <path id="Caminho_1114" data-name="Caminho 1114" d="M465.781,635.853l.024-.2c0-.01.005-.055.008-.087h0l-.127.281-.05-.006-.062-.3-.005,0a.435.435,0,0,1-.007.087l-.02.206-.044,0,.031-.347.07.006.068.3h0l.132-.283.064.009-.037.349Z" transform="translate(-464.083 -635.43)" fill="#00a460"/>
      <path id="Caminho_1115" data-name="Caminho 1115" d="M472.9,637.033l-.25-.058.081-.341.241.054-.007.045-.2-.047-.022.1.187.045-.011.041-.187-.045-.026.114.207.05Z" transform="translate(-469.894 -636.37)" fill="#00a460"/>
      <path id="Caminho_1116" data-name="Caminho 1116" d="M478.677,638.363l.083.033c.037.015.061.036.051.079a.058.058,0,0,1-.086.034l-.09-.028Zm-.057.154.1.038a.1.1,0,0,0,.133-.062.1.1,0,0,0-.068-.129l-.144-.051-.114.33.043.015Z" transform="translate(-474.667 -637.734)" fill="#00a460"/>
      <path id="Caminho_1117" data-name="Caminho 1117" d="M480.288,638.953l.107.04a.061.061,0,0,1,.04.078c-.018.051-.058.043-.09.032l-.1-.04Zm-.059.146.106.044c.055.019.048.048.036.076a.518.518,0,0,0-.023.085l.056.021v0a.037.037,0,0,1,0-.039l.021-.06c.012-.045,0-.063-.015-.076a.087.087,0,0,0,.072-.06c.03-.072-.016-.112-.072-.133l-.149-.055-.127.324.045.017Z" transform="translate(-475.966 -638.208)" fill="#00a460"/>
      <path id="Caminho_1118" data-name="Caminho 1118" d="M482.247,639.968a.127.127,0,0,1-.166.083.125.125,0,0,1-.054-.179.121.121,0,0,1,.16-.084A.126.126,0,0,1,482.247,639.968Zm.046.017a.176.176,0,0,0-.09-.237.167.167,0,0,0-.223.108.16.16,0,0,0,.081.232A.168.168,0,0,0,482.293,639.985Z" transform="translate(-477.452 -638.887)" fill="#00a460"/>
      <path id="Caminho_1119" data-name="Caminho 1119" d="M484.011,640.74l.141.062-.081.171-.027-.015.007-.044a.156.156,0,0,1-.128,0,.138.138,0,0,1-.075-.079.186.186,0,0,1,.011-.156.165.165,0,0,1,.225-.1.139.139,0,0,1,.089.164l-.042-.016a.113.113,0,0,0-.067-.115.126.126,0,0,0-.16.085c-.033.063-.043.142.043.181a.132.132,0,0,0,.075.008.119.119,0,0,0,.074-.069l-.1-.045Z" transform="translate(-478.975 -639.564)" fill="#00a460"/>
      <path id="Caminho_1120" data-name="Caminho 1120" d="M485.653,641.3l.109.054a.057.057,0,0,1,.03.079c-.024.05-.062.04-.092.022l-.095-.047Zm-.068.144.1.05c.055.027.041.06.028.085a.27.27,0,0,0-.027.084l.049.026,0-.007a.05.05,0,0,1,0-.041l.027-.06a.062.062,0,0,0-.005-.075c.024,0,.052-.007.08-.055.033-.064-.012-.109-.061-.135l-.145-.07-.155.312.04.022Z" transform="translate(-480.309 -640.113)" fill="#00a460"/>
      <path id="Caminho_1121" data-name="Caminho 1121" d="M487.34,642.521l-.227-.122.164-.308.229.12-.021.038-.183-.1-.05.092.169.094-.02.035-.169-.091-.053.1.182.1Z" transform="translate(-481.637 -640.802)" fill="#00a460"/>
      <path id="Caminho_1122" data-name="Caminho 1122" d="M489.021,643.248a.078.078,0,0,0-.039-.106.07.07,0,0,0-.1.014c-.017.027,0,.043.015.06l.073.072a.093.093,0,0,1,.024.119.114.114,0,0,1-.169.022.149.149,0,0,1-.08-.084.118.118,0,0,1,.015-.092l.04.021c-.031.057,0,.1.044.12s.076.04.108,0c.015-.034.009-.051-.036-.092l-.053-.05a.092.092,0,0,1-.027-.11.111.111,0,0,1,.162-.033c.107.062.078.129.059.164Z" transform="translate(-482.958 -641.609)" fill="#00a460"/>
      <path id="Caminho_1123" data-name="Caminho 1123" d="M490.508,644.146a.081.081,0,0,0-.038-.107c-.025-.018-.072-.037-.1.012a.038.038,0,0,0,.015.058l.073.074a.085.085,0,0,1,.014.119c-.04.069-.115.048-.169.021a.174.174,0,0,1-.074-.086.1.1,0,0,1,.02-.093l.035.022a.085.085,0,0,0,.04.119c.03.018.085.043.108,0s.013-.047-.027-.09l-.057-.055a.084.084,0,0,1-.018-.105.109.109,0,0,1,.161-.031c.1.063.073.133.053.166Z" transform="translate(-484.165 -642.336)" fill="#00a460"/>
      <path id="Caminho_1124" data-name="Caminho 1124" d="M492.07,645.232a.124.124,0,1,1-.2-.134.126.126,0,0,1,.178-.055A.13.13,0,0,1,492.07,645.232Zm.04.023a.169.169,0,1,0-.242.064A.168.168,0,0,0,492.11,645.255Z" transform="translate(-485.436 -643.148)" fill="#00a460"/>
    </g>
    <g id="Grupo_8629" data-name="Grupo 8629" transform="translate(6.252 3.52)">
      <path id="Caminho_1125" data-name="Caminho 1125" d="M480.758,628.292l.055.176.184,0-.151.108.061.175-.151-.107-.145.11.051-.176-.145-.108h.185Z" transform="translate(-475.893 -628.292)" fill="#fff"/>
      <path id="Caminho_1126" data-name="Caminho 1126" d="M465.871,638.771l.036.112h.122l-.1.065.041.116-.1-.07-.095.067.034-.108-.093-.072h.118Z" transform="translate(-463.875 -636.802)" fill="#fff"/>
      <path id="Caminho_1127" data-name="Caminho 1127" d="M456.121,633.558l.054.161.165,0-.134.1.05.157-.133-.1-.133.1.053-.161-.134-.094h.163Z" transform="translate(-455.909 -632.568)" fill="#fff"/>
      <path id="Caminho_1128" data-name="Caminho 1128" d="M460.185,641.618l.044.141.149,0-.12.089.044.139-.119-.088-.116.089.043-.142-.114-.088h.142Z" transform="translate(-459.227 -639.115)" fill="#fff"/>
      <path id="Caminho_1129" data-name="Caminho 1129" d="M457.993,642.7l.061.191.2,0-.159.119.062.188-.163-.115-.16.118.062-.191-.162-.12.2,0Z" transform="translate(-457.387 -639.993)" fill="#fff"/>
      <path id="Caminho_1130" data-name="Caminho 1130" d="M456.193,645.351l.03.1.1,0-.082.062.036.094-.086-.059-.083.062.036-.095-.085-.065.1,0Z" transform="translate(-456.032 -642.146)" fill="#fff"/>
      <path id="Caminho_1131" data-name="Caminho 1131" d="M462.721,645.177l.043.129h.137l-.113.077.047.131-.111-.082-.113.078.044-.127-.11-.081h.137Z" transform="translate(-461.298 -642.005)" fill="#fff"/>
      <path id="Caminho_1132" data-name="Caminho 1132" d="M462.368,647.808l.04.12h.123l-.1.073.039.122-.1-.073-.1.07.042-.117-.1-.076h.123Z" transform="translate(-461.021 -644.141)" fill="#fff"/>
      <path id="Caminho_1133" data-name="Caminho 1133" d="M465.079,649.737l.052.168h.178l-.14.1.053.166-.141-.1-.145.1.055-.17-.137-.1.174,0Z" transform="translate(-463.174 -645.708)" fill="#fff"/>
      <path id="Caminho_1134" data-name="Caminho 1134" d="M474.319,647.589l.062.186.19,0-.158.113.068.19-.163-.119-.155.118.056-.187-.154-.116h.194Z" transform="translate(-470.654 -643.964)" fill="#fff"/>
      <path id="Caminho_1135" data-name="Caminho 1135" d="M473.916,645.241l.019.064h.072l-.052.042.017.067-.056-.04-.055.036.022-.063-.055-.042h.066Z" transform="translate(-470.462 -642.057)" fill="#fff"/>
      <path id="Caminho_1136" data-name="Caminho 1136" d="M471.865,643.749l.039.1h.112l-.09.069.034.1-.095-.066-.085.067.029-.107-.09-.065.112,0Z" transform="translate(-468.749 -640.845)" fill="#fff"/>
      <path id="Caminho_1137" data-name="Caminho 1137" d="M474.888,641.312l.041.135.143,0-.114.082.041.134-.111-.082-.119.082.046-.135-.115-.085.143,0Z" transform="translate(-471.168 -638.865)" fill="#fff"/>
      <path id="Caminho_1138" data-name="Caminho 1138" d="M480,636.237l.035.117h.129l-.1.075.037.112-.1-.068-.1.069.041-.116-.1-.073.122,0Z" transform="translate(-475.343 -634.745)" fill="#fff"/>
      <path id="Caminho_1139" data-name="Caminho 1139" d="M477,643.548l.049.141.148,0-.121.091.045.14-.12-.086-.12.086.053-.14-.125-.089h.148Z" transform="translate(-472.886 -640.682)" fill="#fff"/>
      <path id="Caminho_1140" data-name="Caminho 1140" d="M479.164,649.71l.065.2.21,0-.171.124.069.2-.172-.123-.165.12.063-.2-.166-.122h.205Z" transform="translate(-474.578 -645.686)" fill="#fff"/>
      <path id="Caminho_1141" data-name="Caminho 1141" d="M481.165,653.327l.051.152.158,0-.133.093.052.152-.128-.1-.128.095.046-.152-.13-.09.161,0Z" transform="translate(-476.249 -648.624)" fill="#fff"/>
      <path id="Caminho_1142" data-name="Caminho 1142" d="M483.183,650.8l.038.126.138,0-.108.079.046.131-.112-.081-.112.078.043-.127-.11-.081h.137Z" transform="translate(-477.916 -646.574)" fill="#fff"/>
      <path id="Caminho_1143" data-name="Caminho 1143" d="M485.776,649.216l.053.145.147,0-.12.087.044.143-.12-.088-.127.09.049-.143-.125-.091h.153Z" transform="translate(-480.004 -645.285)" fill="#fff"/>
      <path id="Caminho_1144" data-name="Caminho 1144" d="M486,652.763l.04.119.117,0-.095.07.04.118L486,653l-.1.07.041-.114-.1-.073.127,0Z" transform="translate(-480.217 -648.165)" fill="#fff"/>
      <path id="Caminho_1145" data-name="Caminho 1145" d="M486.057,654.989l.03.1.112,0-.088.06.035.1-.091-.063-.079.064.027-.1-.082-.06.1,0Z" transform="translate(-480.283 -649.974)" fill="#fff"/>
      <path id="Caminho_1146" data-name="Caminho 1146" d="M487.9,650.058l.049.161h.169l-.134.1.054.162-.143-.1-.133.1.053-.16-.141-.1h.174Z" transform="translate(-481.704 -645.968)" fill="#fff"/>
      <path id="Caminho_1147" data-name="Caminho 1147" d="M490.76,649.839l.037.106h.113l-.09.067.032.112-.089-.068-.1.069.035-.113-.095-.064.113,0Z" transform="translate(-484.089 -645.791)" fill="#fff"/>
      <path id="Caminho_1148" data-name="Caminho 1148" d="M491.9,648.167l.024.083h.087l-.07.05.028.085-.073-.055-.069.052.027-.082-.073-.053h.092Z" transform="translate(-485.039 -644.433)" fill="#fff"/>
      <path id="Caminho_1149" data-name="Caminho 1149" d="M490.555,645.134l.034.1.1,0-.082.06.034.1-.087-.06-.082.06.031-.1-.085-.063h.107Z" transform="translate(-483.933 -641.97)" fill="#fff"/>
      <path id="Caminho_1150" data-name="Caminho 1150" d="M493.44,644.7l.056.172h.179l-.147.106.056.175-.146-.106-.145.1.056-.172-.151-.106h.18Z" transform="translate(-486.193 -641.617)" fill="#fff"/>
      <path id="Caminho_1151" data-name="Caminho 1151" d="M475.056,655.626l.033.106h.112l-.089.065.033.1-.091-.063-.088.063.033-.107-.091-.062.114,0Z" transform="translate(-471.34 -650.491)" fill="#fff"/>
    </g>
  </g>
</svg>
