<svg xmlns="http://www.w3.org/2000/svg" width="144.101" height="60.264" viewBox="0 0 144.101 60.264">
  <g id="Grupo_37" data-name="Grupo 37" transform="translate(-984.011 -156.263)">
    <path id="Caminho_39" data-name="Caminho 39" d="M1178.524,164.813l-.189-.283.184-.286a2.63,2.63,0,0,0,.42-1.423c0-1.548-1.436-3.116-4.18-3.116a5.572,5.572,0,0,0-3.38,1.115l-.417.32-.316-.421c-.711-.947-1.886-1.288-3.495-1.011l-.964.166-.071-.007a4.146,4.146,0,0,0-2.123.34,4.664,4.664,0,0,0-.783.446l-.254.177-1.075-.539-.014-.3a3.383,3.383,0,0,0-3.42-2.882,2.5,2.5,0,0,0-2.3,1.7,5.439,5.439,0,0,0-.3,1.078l-.129.711-.633-.348a3.772,3.772,0,0,0-1.815-.45,2.667,2.667,0,0,0-1.818.629l-.317.278-.338-.253a3.45,3.45,0,0,0-2.091-.654,4.6,4.6,0,0,0-1.907.437l-.274.128-.247-.175a3.151,3.151,0,0,0-3.156-.285l-.209.1-.213-.09a3.188,3.188,0,0,0-.632-.193l-.391-.076-.028-.4a3.481,3.481,0,0,0-.62-1.685l-.866-1.3-1.4.7a4.228,4.228,0,0,1-1.881.333,9.288,9.288,0,0,1-1.2-.116,11.848,11.848,0,0,0-1.615-.144c-2.29,0-4.3,1.666-4.3,3.565a2.62,2.62,0,0,0,.849,1.912l.8.8-.127.666a16.407,16.407,0,0,0-.387,3.075c0,2.959,1.548,4.014,3,4.014a5.067,5.067,0,0,0,2.606-.839l1.042-.754-.413-1.242a3.429,3.429,0,0,1-.088-.658l-.037-.532.532-.024a4.254,4.254,0,0,0,1.356-.277l.729-.284-.058,2.292.073.258a2.721,2.721,0,0,0,2.684,1.937h.045a2.915,2.915,0,0,0,2.831-2.212l.454-1.973.595,1.7a3.862,3.862,0,0,0,5.432,2.175l.251-.134.248.14a3.314,3.314,0,0,0,1.648.428,3.892,3.892,0,0,0,2.324-.76l.308-.231.311.228a4.062,4.062,0,0,0,2.423.764,4.62,4.62,0,0,0,2.62-.79l.291-.2.295.2c.1.064.186.119.276.168a4.254,4.254,0,0,0,3.844.018l.28-.122.243.185a2.647,2.647,0,0,0,1.142.5,3.109,3.109,0,0,0,2.225-.5l.256-.165.269.142a6,6,0,0,0,2.822.616c2.98,0,5.314-1.929,5.314-4.392A3.382,3.382,0,0,0,1178.524,164.813Z" transform="translate(-115.445)" fill="#fff"/>
    <g id="Grupo_36" data-name="Grupo 36" transform="translate(984.011 166.518)">
      <path id="Caminho_40" data-name="Caminho 40" d="M1041.1,232.119a10.924,10.924,0,0,1-2.41,1.873,11.64,11.64,0,0,1-6.26,1.549l-.981-.133a10.621,10.621,0,0,1-6.774-4.052,13.056,13.056,0,0,1-2.573,2.339l-.877.528a10.808,10.808,0,0,1-5.114,1.279,21.453,21.453,0,0,0,2.19,3.788l.806,1.006.849.907.889.81.927.716.962.623,1,.532,1.028.441,1.059.352,1.091.263,1.121.173,1.151.082,1.179-.011,1.206-.106,1.231-.2,1.254-.3,1.274-.4,1.291-.507,1.3-.613,1.314-.721,1.32-.831,1.322-.942,1.321-1.055a40.583,40.583,0,0,0,4.218-4.226l-.089-.353a8.276,8.276,0,0,1-3.143-.515l-1.355-.7a7.9,7.9,0,0,1-1.724-1.585m-16.563-17.8.307.377a10.683,10.683,0,0,1,4.354-3.363,15.928,15.928,0,0,1,3.086-.88l.8-.119,1.184.1a13.119,13.119,0,0,1,4.709,1.485,10.919,10.919,0,0,1,3.48,3.216,11,11,0,0,1,3.617-2.849,12.991,12.991,0,0,1,1.973-.681l1.419-.185a9.36,9.36,0,0,1,2.485.266l1.045-.516.822-.142c2.017-.3,4.206-.288,5.864,1.079a7.211,7.211,0,0,1,3.355-1.575c2.016.067,4.031,0,6.047.07a23.565,23.565,0,0,1,2.349.334,4.234,4.234,0,0,1,1.51-3.647l.663-.463a4.843,4.843,0,0,1,2.839-.566l.87.195a5.3,5.3,0,0,1,2.016,1.269,8.265,8.265,0,0,1,2.215,4.636,10.659,10.659,0,0,1,6.9-1.556,11.009,11.009,0,0,1,4.826,1.869l.651-.637a6.723,6.723,0,0,1,2.915-1.483,7.991,7.991,0,0,1,1.4-.09,7.1,7.1,0,0,1,3.3,1.157,7.294,7.294,0,0,1,2.624-1.183l.961-.12a6.372,6.372,0,0,1,5.375,2.557,10.518,10.518,0,0,1,8.822-1.257,4.51,4.51,0,0,1,.938-1.7l.807-.727a4.493,4.493,0,0,1,6.721,5.383,5.29,5.29,0,0,1-2,2.234,13.442,13.442,0,0,1,1.838,5.68,17.658,17.658,0,0,1-1.27,7.131c-1.875,3.734-5.281,6.313-8.9,6.634a12.51,12.51,0,0,1-2.984-.085,15.465,15.465,0,0,1-1.7-.445,12.664,12.664,0,0,1-3.024-1.646l-.874-.74a13.126,13.126,0,0,1-3.11-4.626c-.008.846-.023,1.691-.039,2.538l-.374,1.163a6.2,6.2,0,0,1-1.411,1.909l-.722.532a6.491,6.491,0,0,1-3.628.908l-.835-.108a5.666,5.666,0,0,1-2.759-1.469,6.848,6.848,0,0,1-.868-1.216l-.192-.435-.81.755a11.957,11.957,0,0,1-4.025,2.184l-1.144.266a11.576,11.576,0,0,1-3.96-.075l-1.038-.277a11.615,11.615,0,0,1-5.667-4.167,11.264,11.264,0,0,1-4.392,3.282,16.063,16.063,0,0,1-2.932.824l-.8.115-7.529-.164a5.515,5.515,0,0,1-2.712-.773,5.965,5.965,0,0,1-3.332.812l.158.519a3.319,3.319,0,0,1-2.622,4.493,5.75,5.75,0,0,1-1.026.038l-1.182,1.406-2.228,2.367-2.253,2.126-2.273,1.891-2.289,1.662-2.3,1.439-2.3,1.221-2.3,1.01-2.293.8-2.278.6-2.255.41-2.224.223-2.185.043-2.139-.128-2.085-.291-2.025-.445-1.958-.591-1.885-.727-1.806-.855-1.721-.974-1.632-1.085-1.537-1.186-1.438-1.281-1.333-1.367-1.223-1.447-1.108-1.518-.987-1.583-.86-1.64-.727-1.691a25.083,25.083,0,0,1-1.128-4.125l-10.727-.062-1.081-.248a5.8,5.8,0,0,1-2.023-1.171l-.609-.732a4.753,4.753,0,0,1-.7-2.164l.048-.857a5.084,5.084,0,0,1,2.235-3.4l.089-12.222a4.367,4.367,0,0,1-2-3.316l.019-.81a4.753,4.753,0,0,1,1.391-2.743,5.7,5.7,0,0,1,2.044-1.186l.633-.169H1001.1l1.548.221,1.407.48,1.244.722,1.043.924a10.415,10.415,0,0,1,1.148,1.65,11.4,11.4,0,0,1,.66,1.824,10.651,10.651,0,0,1,.2,2.413,12.1,12.1,0,0,1,3.433-2.476l1.042-.418a11.3,11.3,0,0,1,4.475-.505l1.066.168a11.76,11.76,0,0,1,3.854,1.66,13.7,13.7,0,0,1,2.321,2.1" transform="translate(-984.011 -205.562)" fill="#fff" fill-rule="evenodd"/>
      <path id="Caminho_41" data-name="Caminho 41" d="M1005.635,238.4v-6.625c5.407-1.307,5.484,7.537,0,6.625m0-11.012v-6.311c4.669-1.307,4.79,7.224,0,6.311m-6.89,10.223.114-15.679c-2.838-.48-2.495-3.369-.181-3.9h12.161c6.1.34,6.2,8.6,1.357,10.658,8.859,3.548,8.666,12.268-1.9,13.238l-11.745-.068c-3.259-.532-2.287-3.886.194-4.25" transform="translate(-993.881 -215.439)" fill="#9a0310" fill-rule="evenodd"/>
      <path id="Caminho_42" data-name="Caminho 42" d="M1105.267,244.182c1.409,0,2.558,3.1,2.558,6.9s-1.149,6.9-2.558,6.9-2.558-3.1-2.558-6.9,1.149-6.9,2.558-6.9m-.122-3.176c4.864,0,8.832,4.487,8.832,9.988s-3.968,9.988-8.832,9.988-8.833-4.487-8.833-9.988,3.968-9.988,8.833-9.988" transform="translate(-1072.953 -233.633)" fill="#9a0310" fill-rule="evenodd"/>
      <path id="Caminho_43" data-name="Caminho 43" d="M1271.226,248.765c1.5.491,1.953,2.78,1.02,5.1s-2.915,3.806-4.41,3.315-1.953-2.78-1.019-5.1,2.915-3.806,4.41-3.315m1.73-3.328q.028-.849.057-1.7c2.187-.4,4.044-.32,4.871,1.246-.227,4.21-.4,8.421-.623,12.631.113,1.416,1.076,2.077,3,1.983-1.657,3.7-6.509,5-6.911-.453-7.463,6.4-13.665,2.88-12.4-6.117.747-5.923,6.315-11.618,12.008-7.59" transform="translate(-1203.212 -235.636)" fill="#9a0310" fill-rule="evenodd"/>
      <path id="Caminho_44" data-name="Caminho 44" d="M1359.454,245.279c2.153.136,3.667,1.686,3.777,6.349,0,4.89-1.606,6.568-3.941,6.787Zm-5.966,1.095c-1.821-.49-3.594-3.425.438-4.379,2.043.073,3.539-.018,5.583.055,5.408.471,10.234,3.1,9.633,10.673-.475,3.391-2.211,8.208-8.539,8.976l-7.553-.164c-3.284-.456-2.39-4.178.219-4.105q.11-5.528.219-11.056" transform="translate(-1274.607 -234.416)" fill="#9a0310" fill-rule="evenodd"/>
      <path id="Caminho_45" data-name="Caminho 45" d="M1419.932,221.782c1.9,1.809,1.979,4.252,1.552,6.872a15.1,15.1,0,0,0-4.089-4.29c-2.039-1.7.484-4.228,2.537-2.582" transform="translate(-1326.649 -217.985)" fill="#9a0310" fill-rule="evenodd"/>
      <path id="Caminho_46" data-name="Caminho 46" d="M1586.261,248.126c1.409,0,2.558,3.1,2.558,6.9s-1.149,6.9-2.558,6.9-2.559-3.1-2.559-6.9,1.149-6.9,2.559-6.9m-.122-3.176c4.865,0,8.832,4.487,8.832,9.988s-3.968,9.988-8.832,9.988-8.833-4.487-8.833-9.988,3.968-9.988,8.833-9.988" transform="translate(-1453.894 -236.757)" fill="#9a0310" fill-rule="evenodd"/>
      <path id="Caminho_47" data-name="Caminho 47" d="M1511.282,244.458c2.461-4.433,5.078-4.2,7.995-1.358,2.471-3.64,6.59-2.372,7.413.85.443,3.577-1.8,5.316-5.905,3.227-.078,3.835-.041,7.841-.118,11.677-.651,2.832-5.149,3.141-5.869.463q.154-6.062.309-12.124-.133-2.476-2.085-1.313c-1.528.322-2.032-.38-1.74-1.422" transform="translate(-1401.541 -233.543)" fill="#9a0310" fill-rule="evenodd"/>
      <path id="Caminho_48" data-name="Caminho 48" d="M1446.432,246.057c1.409,0,2.558,3.1,2.558,6.9s-1.149,6.9-2.558,6.9-2.558-3.1-2.558-6.9,1.149-6.9,2.558-6.9m-.122-3.177c4.865,0,8.832,4.487,8.832,9.988s-3.968,9.988-8.832,9.988-8.833-4.487-8.833-9.988,3.968-9.988,8.833-9.988" transform="translate(-1343.151 -235.117)" fill="#9a0310" fill-rule="evenodd"/>
      <path id="Caminho_49" data-name="Caminho 49" d="M1197.037,247.615l-6.008-.148c-.174-2.138-.929-3.161-2.167-3.259-2.051.13-2.552,3.236-2.727,6.68-.147,3.329.421,7.018,2.669,7.335.916-.072,2.1-1.306,1.979-3.251l5.662.148c-.964,3.473-4.058,5.711-8.026,5.975-4.814-.289-8.339-3.589-8.272-10.222.385-5.521,2.855-9.1,8.371-9.827,4.254.255,7.185,2.32,8.519,6.568" transform="translate(-1139.348 -233.666)" fill="#9a0310" fill-rule="evenodd"/>
      <path id="Caminho_50" data-name="Caminho 50" d="M1077.9,300.308c4.251,20.76,24.058,23.815,38.673,5.525-.87-1.618-.966-3.062.844-2.5a7.707,7.707,0,0,1,2.929,3.036c.413,1.251.074,1.888-2.087,1.261-22.373,28.093-48.633,12.441-50.551-4.372-.479-3.21.059-7.865,3.715-9.049,3.709-.967,6.057,2.929,6.477,6.1" transform="translate(-1050.178 -275.653)" fill="#9a0310" fill-rule="evenodd"/>
      <path id="Caminho_51" data-name="Caminho 51" d="M1647.973,231.665a1.915,1.915,0,0,1,.737.143,1.931,1.931,0,0,1,1.02,1.027,1.956,1.956,0,0,1,0,1.455,1.8,1.8,0,0,1-.413.606,1.979,1.979,0,0,1-.622.412,1.857,1.857,0,0,1-.718.143,1.821,1.821,0,0,1-.723-.148,1.967,1.967,0,0,1-1.027-1.034,1.875,1.875,0,0,1,.007-1.441,1.935,1.935,0,0,1,.423-.627,1.794,1.794,0,0,1,.6-.4,1.905,1.905,0,0,1,.721-.135m0,.284a1.593,1.593,0,0,0-.613.116,1.566,1.566,0,0,0-.511.343,1.722,1.722,0,0,0-.36.536,1.543,1.543,0,0,0-.126.614,1.584,1.584,0,0,0,.12.609,1.66,1.66,0,0,0,.867.876,1.5,1.5,0,0,0,.6.125,1.678,1.678,0,0,0,.629-.119,1.628,1.628,0,0,0,.534-.353,1.53,1.53,0,0,0,.472-1.112,1.694,1.694,0,0,0-.116-.632,1.588,1.588,0,0,0-.343-.524,1.664,1.664,0,0,0-.53-.358,1.6,1.6,0,0,0-.62-.122m-.774.512h.817a1.261,1.261,0,0,1,.671.146.477.477,0,0,1,.228.43.558.558,0,0,1-.473.586l.473.962h-.509l-.422-.888h-.331v.888h-.455Zm.455.286v.668h.3a.7.7,0,0,0,.375-.078.275.275,0,0,0,.118-.247.292.292,0,0,0-.123-.26.716.716,0,0,0-.39-.083Z" transform="translate(-1508.363 -226.235)" fill="#9a0310" fill-rule="evenodd"/>
    </g>
    <path id="Caminho_52" data-name="Caminho 52" d="M1146.746,168.568c0,.922-.686,1.561-2.01,1.561a16.466,16.466,0,0,1-2.34-.26,5.768,5.768,0,0,1,.094.851c0,.591-.118,1.158-.189,1.891a9.031,9.031,0,0,0,1.489.118,4.62,4.62,0,0,0,1.891-.355,1.151,1.151,0,0,1,.284.733c0,.733-.662,1.277-1.8,1.277a7.292,7.292,0,0,1-2.01-.378c-.024.52-.047,1.04-.047,1.655a8.075,8.075,0,0,0,.213,2.27,3.369,3.369,0,0,1-1.56.5c-.78,0-1.229-.78-1.229-2.246,0-1.75.686-3.641.686-5.225,0-.615-.189-.9-.567-.9a1.989,1.989,0,0,0-.922.331.9.9,0,0,1-.331-.662c0-.851,1.182-1.8,2.53-1.8.9,0,1.868.26,2.814.26a5.988,5.988,0,0,0,2.671-.52A1.7,1.7,0,0,1,1146.746,168.568Z" transform="translate(-122.274 -9.034)" fill="#9a0310"/>
    <path id="Caminho_53" data-name="Caminho 53" d="M1211.023,183.4c0-.449.946-1.182,2.057-1.182,1.017,0,1.655.591,1.655,1.82,0,.686-.284,2.033-.284,3.026,0,.9.236,1.253.733,1.253.449,0,.922-.615,1.158-1.655a20.809,20.809,0,0,1,.213-3.1c.166-1.016.378-1.347,1.088-1.347.757,0,1.513.425,1.513.993a10.465,10.465,0,0,1-.567,2.719,7.658,7.658,0,0,0-.071,1.087c0,1.064.236,1.489.638,1.489a1.322,1.322,0,0,0,.615-.166.667.667,0,0,1,.165.5c0,.473-.709,1.111-1.726,1.111a1.775,1.775,0,0,1-1.7-1.655h-.071a2.368,2.368,0,0,1-2.151,1.655c-1.3,0-2.175-.946-2.175-2.624,0-1.04.26-1.962.26-2.861,0-.544-.189-.709-.5-.709a1.436,1.436,0,0,0-.591.142A.649.649,0,0,1,1211.023,183.4Z" transform="translate(-179.791 -20.556)" fill="#9a0310"/>
    <path id="Caminho_54" data-name="Caminho 54" d="M1257.02,171.814c.095-1.8.449-2.553.993-2.553.733,0,1.655.591,1.655,1.229a3.567,3.567,0,0,1-.615,1.7l-.024.26a12.787,12.787,0,0,1,1.82-.095l.094.047a2.343,2.343,0,0,1-.425,1.348c-.568,0-1.111,0-1.631.047-.047.52-.142,2.057-.142,2.908,0,1.088.307,1.442.851,1.442a2.116,2.116,0,0,0,1.3-.591.9.9,0,0,1,.165.567c0,.756-.922,1.56-2.293,1.56a2.336,2.336,0,0,1-2.341-2.6c0-1.04.213-2.293.284-3.31l-1.253.094a1.949,1.949,0,0,1,.426-1.3A1.241,1.241,0,0,0,1257.02,171.814Z" transform="translate(-214.984 -10.294)" fill="#9a0310"/>
    <path id="Caminho_55" data-name="Caminho 55" d="M1330.595,188.383c.638,0,.969-.26.969-.686,0-.378-.307-.686-1.75-1.182-1.371-.52-1.962-1.111-1.962-2.057,0-1.418,1.466-2.7,3.357-2.7,1.584,0,2.411.686,2.411,1.348,0,.544-.544,1.04-1.395,1.135a1.386,1.386,0,0,0-1.347-1.158.749.749,0,0,0-.8.686c0,.331.307.567,1.726,1.135,1.466.615,1.963,1.229,1.963,2.1,0,1.49-1.561,2.624-3.546,2.624-1.82,0-2.932-.757-2.932-1.75,0-.638.5-1.087,1.324-1.206A2.149,2.149,0,0,0,1330.595,188.383Z" transform="translate(-271.869 -20.196)" fill="#9a0310"/>
    <path id="Caminho_56" data-name="Caminho 56" d="M1291.489,181.384l-.027.8-.132-.093a2.533,2.533,0,0,0-2.587-.336,4.458,4.458,0,0,0-2.318,3.463c-.242,1.729.187,3.075,1.147,3.6,1.018.557,2.446.153,3.917-1.109l.13-.112.013.171c.062.839.385,1.352.912,1.445a1.883,1.883,0,0,0,1.762-1.158h0c-.751,0-1.157-.307-1.205-.916.047-.893.089-1.774.13-2.655s.083-1.756.13-2.635C1293.084,181.356,1292.5,181.21,1291.489,181.384Zm-.326,4.209a2.139,2.139,0,0,1-1.684,1.485.875.875,0,0,1-.275-.043.926.926,0,0,1-.548-.515,2.264,2.264,0,0,1,.066-1.739c.409-1.015,1.289-1.661,1.959-1.442a.926.926,0,0,1,.548.515A2.265,2.265,0,0,1,1291.163,185.593Z" transform="translate(-239.456 -19.84)" fill="#9a0310" fill-rule="evenodd"/>
    <path id="Caminho_57" data-name="Caminho 57" d="M1181.153,189.1a1.145,1.145,0,0,0,1.141-.84c.013-.735.017-1.517.021-2.274s.008-1.545.023-2.3l0-.139.123.063a1.8,1.8,0,0,0,1.792.175,1.371,1.371,0,0,0,.4-1.356,1.483,1.483,0,0,0-1.155-1.106,1.608,1.608,0,0,0-1.6.81l-.058.086-.074-.072a2.026,2.026,0,0,0-1.612-.777c-.5.073-.951.492-1.391,1.282a.4.4,0,0,0,.043.375.582.582,0,0,0,.529.069.657.657,0,0,1,.643-.1c.178.1.275.324.3.7l-.121,4.762A.955.955,0,0,0,1181.153,189.1Z" transform="translate(-154.226 -19.833)" fill="#9a0310" fill-rule="evenodd"/>
  </g>
</svg>
